GRFwalking.mot
version=1
nRows=15
nColumns=37
inDegrees=yes
endheader
time	ground_force_calcn_l_vx	ground_force_calcn_l_vy	ground_force_calcn_l_vz	ground_force_calcn_l_px	ground_force_calcn_l_py	ground_force_calcn_l_pz	ground_torque_calcn_l_vx	ground_torque_calcn_l_vy	ground_torque_calcn_l_vz	ground_force_calcn_r_vx	ground_force_calcn_r_vy	ground_force_calcn_r_vz	ground_force_calcn_r_px	ground_force_calcn_r_py	ground_force_calcn_r_pz	ground_torque_calcn_r_vx	ground_torque_calcn_r_vy	ground_torque_calcn_r_vz	ground_force_hand_l_vx	ground_force_hand_l_vy	ground_force_hand_l_vz	ground_force_hand_l_px	ground_force_hand_l_py	ground_force_hand_l_pz	ground_torque_hand_l_vx	ground_torque_hand_l_vy	ground_torque_hand_l_vz	ground_force_hand_r_vx	ground_force_hand_r_vy	ground_force_hand_r_vz	ground_force_hand_r_px	ground_force_hand_r_py	ground_force_hand_r_pz	ground_torque_hand_r_vx	ground_torque_hand_r_vy	ground_torque_hand_r_vz
0.9999821      29.79662      545.0996      24.73221     0.3020391  -1.82146e-17    -0.4071954             0     0.7527504             0     -23.47124      276.2004     -6.537902     0.5265604 -3.209238e-17    -0.2052131             0     0.9068736             0             0             0             0     0.4817429     0.7607946    -0.5465708             0             0             0             0             0             0     0.4094246     0.7512382    -0.0750191             0             0             0
 1.016649      28.95051      507.4179      22.01231     0.3097733 -1.908196e-17    -0.4093221             0     0.6357954             0     -27.83557      304.5463     -8.084075     0.5299647 -3.209238e-17    -0.2046695             0     0.7858632             0             0             0             0     0.4856975     0.7623634    -0.5456619             0             0             0             0             0             0     0.4207728     0.7522075   -0.07257923             0             0             0
 1.033315      27.80159      467.3826      18.89497     0.3166474 -1.908196e-17     -0.411057             0     0.5173428             0     -32.39855      332.8815     -9.177814     0.5328791 -3.295975e-17    -0.2042735             0     0.6626333             0             0             0             0      0.489548     0.7642521    -0.5447932             0             0             0             0             0             0     0.4324258     0.7536194    -0.0701899             0             0             0
 1.049982      26.55392      426.4423       15.6471     0.3226861 -1.994932e-17    -0.4127616             0     0.4014363             0     -37.04718      360.3466      -9.88329     0.5356418 -3.295975e-17    -0.2039554             0     0.5416128             0             0             0             0      0.493259     0.7663572    -0.5439498             0             0             0             0             0             0     0.4443176     0.7553892   -0.06787544             0             0             0
 1.066649      25.44154       386.591      12.56064     0.3273865 -2.081668e-17    -0.4137294             0     0.2949732             0     -41.56514      385.9515     -10.28827     0.5384925 -3.295975e-17    -0.2036618             0     0.4300934             0             0             0             0     0.4968078     0.7685205    -0.5431105             0             0             0             0             0             0     0.4563839     0.7573772   -0.06564751             0             0             0
 1.083315      24.69178      350.1498      9.902622     0.3305778 -2.081668e-17     -0.413592             0     0.2075844             0     -45.62858      408.7628     -10.49409      0.541525 -3.295975e-17    -0.2033568             0     0.3379962             0             0             0             0     0.5001761     0.7705519    -0.5422522             0             0             0             0             0             0     0.4685568     0.7594087   -0.06350771             0             0             0
 1.099982      24.48809      319.4144      7.865707     0.3336585 -2.081668e-17    -0.4138197             0     0.1505546             0     -48.83378      428.1251     -10.60504     0.5446063 -3.295975e-17    -0.2030292             0     0.2767141             0             0             0             0     0.5033413     0.7722684    -0.5413541             0             0             0             0             0             0     0.4807606     0.7613077   -0.06145225             0             0             0
 1.116648      24.93779      296.2177      6.529095      0.335136 -2.081668e-17    -0.4137125             0     0.1348695             0     -50.75565      443.8703     -10.71706     0.5473655 -3.295975e-17    -0.2026986             0     0.2571456             0             0             0             0      0.506274     0.7735406    -0.5404013             0             0             0             0             0             0     0.4929151     0.7629393   -0.05947886             0             0             0
 1.133315      26.04949      281.4885      5.839606     0.3370426 -2.081668e-17    -0.4137297             0     0.1687257             0     -51.02749      456.4606     -10.90661     0.5493585 -3.295975e-17    -0.2024086             0      0.287257             0             0             0             0     0.5089461       0.77433    -0.5393872             0             0             0             0             0             0     0.5049478     0.7642438   -0.05759404             0             0             0
 1.149981      27.72397      274.9111      5.619731     0.3393507 -2.081668e-17    -0.4140586             0     0.2550531             0     -49.42582      467.0231     -11.22221     0.5503187 -3.382711e-17    -0.2022046             0     0.3697039             0             0             0             0     0.5113443     0.7747042    -0.5383139             0             0             0             0             0             0     0.5168026     0.7652535   -0.05581816             0             0             0
 1.166648      29.76088      274.7839      5.604159     0.3415498 -2.081668e-17    -0.4144839             0     0.3897199             0     -45.94023      477.2441     -11.68213     0.5502601 -3.382711e-17    -0.2021097             0     0.5001506             0             0             0             0     0.5134841     0.7748248    -0.5371896             0             0             0             0             0             0     0.5284567     0.7660842   -0.05418309             0             0             0
 1.183315      31.88056      278.1494      5.499201     0.3433547 -2.081668e-17    -0.4144886             0      0.561054             0     -40.81019      489.1195     -12.28103      0.549367 -3.382711e-17     -0.202118             0      0.666883             0             0             0             0     0.5154131     0.7749025    -0.5360263             0             0             0             0             0             0     0.5399186     0.7668986   -0.05272591             0             0             0
 1.199981      33.75735      281.2073      5.052698     0.3445914 -2.081668e-17    -0.4136024             0     0.7510747             0     -34.51664      504.5914     -13.00646     0.5478253 -3.382711e-17    -0.2021991             0     0.8520952             0             0             0             0     0.5172069     0.7751305    -0.5348362             0             0             0             0             0             0      0.551232     0.7678516   -0.05147802             0             0             0
 1.216648      35.05777      279.9567      4.117998     0.3454769 -2.081668e-17    -0.4117017             0     0.9384265             0     -27.72646      525.1277      -13.8617     0.5457156 -3.382711e-17     -0.202308             0      1.034832             0             0             0             0      0.518956     0.7756177    -0.5336295             0             0             0             0             0             0     0.5624662     0.7690357    -0.0504559             0             0             0
 1.233315       35.4773      270.9475      2.695946     0.3471194 -2.168404e-17    -0.4091675             0      1.102503             0     -21.19903      551.3303     -14.88824     0.5429925 -3.295975e-17    -0.2024011             0      1.195087             0             0             0             0     0.5207439     0.7763537    -0.5324134             0             0             0             0             0             0     0.5736942      0.770454   -0.04965469             0             0             0
